<?xml version="1.0" standalone="no"?>
<!DOCTYPE svg PUBLIC "-//W3C//DTD SVG 20010904//EN"
 "http://www.w3.org/TR/2001/REC-SVG-20010904/DTD/svg10.dtd">
<svg version="1.0" xmlns="http://www.w3.org/2000/svg"
 width="512.000000pt" height="512.000000pt" viewBox="0 0 512.000000 512.000000"
 preserveAspectRatio="xMidYMid meet">
<metadata>
Created by potrace 1.14, written by Peter Selinger 2001-2017
</metadata>
<g transform="translate(0.000000,512.000000) scale(0.100000,-0.100000)"
fill="#000000" stroke="none">
<path d="M3800 5033 c0 -5 16 -28 35 -52 21 -26 38 -61 42 -85 3 -22 16 -49
29 -61 13 -12 25 -35 28 -51 13 -68 18 -84 33 -92 20 -12 54 -105 60 -167 3
-35 13 -61 34 -87 32 -40 35 -56 18 -103 -10 -26 -8 -41 10 -89 23 -61 27
-106 11 -106 -6 0 -9 -34 -7 -92 3 -62 -1 -104 -9 -126 -8 -21 -11 -50 -7 -78
5 -39 3 -47 -16 -61 -18 -12 -22 -22 -18 -57 4 -45 -12 -87 -50 -127 -13 -14
-25 -39 -27 -54 -2 -15 -25 -55 -52 -88 -27 -33 -54 -74 -60 -91 -6 -16 -24
-38 -40 -46 -16 -9 -33 -30 -38 -46 -19 -63 -26 -76 -42 -70 -21 8 -96 -64
-98 -95 -1 -19 -7 -24 -28 -24 -29 -1 -97 -45 -131 -84 -12 -15 -53 -46 -92
-70 -38 -24 -82 -56 -97 -70 -16 -16 -52 -34 -85 -44 -33 -9 -72 -28 -87 -42
-15 -14 -47 -35 -71 -46 -24 -11 -59 -41 -81 -69 -29 -35 -55 -55 -99 -74 -75
-33 -182 -122 -216 -181 -27 -47 -60 -88 -66 -82 -8 9 -116 -112 -140 -155
-15 -27 -30 -48 -35 -48 -5 0 -8 -6 -6 -13 1 -6 -5 -23 -13 -37 -9 -14 -34
-55 -57 -91 -23 -36 -42 -69 -42 -73 0 -5 -14 -24 -30 -43 -17 -19 -28 -39
-24 -44 3 -6 -2 -16 -11 -23 -10 -7 -19 -24 -20 -39 -2 -14 -16 -37 -31 -50
-26 -22 -28 -30 -28 -98 -1 -41 -4 -79 -8 -84 -4 -6 -9 -29 -12 -50 -14 -106
-19 -131 -27 -141 -5 -6 -11 -38 -13 -70 -2 -32 -7 -85 -11 -116 -6 -40 -4
-62 5 -72 6 -8 9 -19 6 -24 -3 -5 -6 -49 -7 -98 -2 -99 22 -222 53 -266 11
-16 18 -44 18 -71 0 -35 8 -57 34 -96 20 -31 36 -70 40 -98 7 -53 54 -133 94
-159 15 -10 35 -28 45 -41 10 -13 25 -23 34 -23 8 0 33 -18 55 -41 61 -62 116
-81 213 -77 57 3 94 11 129 27 27 13 61 25 75 27 80 15 187 139 205 238 3 15
10 34 17 42 16 20 16 248 -1 419 -15 165 -16 187 -7 260 14 115 19 133 37 150
16 15 17 21 6 53 -12 34 -11 39 20 82 17 25 48 78 68 118 27 56 54 92 116 152
60 58 85 90 96 124 15 44 45 74 87 89 11 4 21 16 24 27 3 11 10 17 15 14 5 -3
22 5 36 18 15 14 54 45 87 68 33 24 85 64 115 90 30 26 73 53 95 60 42 13 167
131 201 190 13 21 23 28 38 24 22 -5 115 61 116 82 0 5 20 24 45 42 25 17 45
38 45 47 0 8 13 21 29 30 28 14 101 94 101 110 0 4 14 28 32 54 17 25 39 66
48 91 10 29 25 49 42 58 18 8 28 23 32 47 4 19 15 40 25 47 18 13 74 103 77
125 1 6 4 29 7 50 3 21 16 64 28 96 19 51 20 61 8 83 -11 21 -11 27 0 33 10 6
10 10 2 16 -8 4 -3 13 13 26 25 19 51 106 48 156 -1 12 4 26 12 30 10 6 16 41
20 120 6 97 4 118 -14 162 -23 58 -26 90 -16 146 5 30 0 71 -18 147 -15 58
-26 120 -26 138 0 18 -10 49 -22 69 -13 20 -33 63 -45 96 -51 142 -65 173
-101 224 -49 72 -83 104 -97 90 -7 -7 -5 -14 7 -23 9 -7 42 -64 72 -127 41
-83 57 -129 60 -169 3 -30 8 -65 11 -77 10 -45 15 -68 20 -108 7 -45 24 -116
32 -129 12 -19 15 -234 3 -255 -15 -29 -30 -17 -30 23 0 17 -4 36 -10 42 -5 5
-12 29 -15 53 -3 24 -8 48 -12 54 -3 6 -8 42 -9 81 -3 71 -21 157 -35 166 -4
3 -10 23 -13 45 -11 65 -25 108 -46 140 -11 17 -20 41 -20 55 0 54 -122 212
-150 195 -12 -7 -2 -26 48 -102 34 -51 69 -162 76 -238 2 -22 14 -62 26 -90
26 -57 32 -114 36 -310 2 -77 4 -162 5 -189 1 -41 -2 -53 -21 -68 -12 -10 -28
-18 -36 -18 -8 0 -14 -7 -14 -15 0 -8 -5 -15 -11 -15 -8 0 -9 12 -3 38 4 20 9
54 10 74 0 21 6 43 11 50 5 7 8 27 6 43 -2 17 -7 73 -11 125 -5 53 -14 106
-21 119 -8 14 -10 40 -7 69 5 34 2 55 -10 77 -9 17 -18 52 -20 79 -2 36 -10
57 -28 75 -14 15 -27 37 -29 50 -5 29 -45 48 -54 26 -3 -9 -1 -28 5 -43 6 -15
10 -42 11 -60 0 -18 6 -45 14 -61 9 -17 14 -60 14 -112 0 -91 10 -180 24 -217
8 -20 3 -29 -27 -58 -20 -19 -40 -34 -45 -34 -5 0 -15 22 -23 48 -14 48 -15
109 -1 151 4 12 -2 43 -14 76 -11 30 -25 79 -30 108 -17 94 -40 162 -61 179
-14 12 -20 28 -20 60 0 37 -17 80 -40 98 -14 11 -70 99 -70 110 0 23 -73 116
-103 130 -21 10 -34 26 -41 48 -5 17 -13 32 -17 32 -5 0 -24 16 -43 35 -32 32
-66 46 -66 28z m925 -1283 c3 -11 4 -23 1 -28 -2 -4 -7 -28 -11 -52 -8 -53
-29 -80 -62 -80 -27 0 -28 7 -7 59 8 21 16 52 18 68 1 15 5 34 9 41 12 19 45
14 52 -8z m-67 -264 c4 -17 -24 -56 -39 -56 -5 0 -13 9 -19 20 -8 16 -6 24 10
40 24 24 43 22 48 -4z"/>
<path d="M4370 4932 c0 -4 8 -15 18 -23 9 -9 29 -31 44 -49 22 -25 29 -29 34
-17 11 30 -1 51 -45 74 -49 26 -51 26 -51 15z"/>
<path d="M4155 4807 c-4 -8 1 -27 10 -41 10 -14 14 -26 10 -26 -4 0 4 -13 18
-30 14 -16 37 -54 51 -84 14 -30 35 -61 47 -69 21 -16 59 -12 59 5 0 17 -41
81 -72 112 -16 17 -38 46 -48 65 -10 20 -30 47 -44 60 -22 20 -26 22 -31 8z"/>
<path d="M2615 4579 c-8 -13 -58 -20 -65 -10 -6 10 -89 -15 -106 -32 -4 -4
-17 -7 -28 -7 -12 0 -41 -19 -66 -43 -25 -23 -73 -66 -106 -95 -37 -32 -74
-76 -93 -110 -17 -31 -35 -64 -40 -72 -4 -8 -16 -28 -25 -45 -69 -120 -76
-146 -81 -283 -5 -119 -3 -136 15 -172 11 -21 20 -50 20 -64 0 -16 7 -27 20
-31 12 -4 20 -15 20 -28 0 -24 68 -106 169 -205 58 -57 67 -62 105 -61 23 1
61 -7 86 -16 25 -10 59 -18 76 -20 17 -1 40 -7 51 -13 24 -13 157 -9 175 5 7
6 33 13 58 17 67 10 130 41 130 64 0 20 56 63 100 77 14 4 42 26 63 47 30 30
36 42 27 53 -8 10 -7 16 7 27 34 24 103 147 119 211 23 87 14 178 -25 261 -17
35 -38 66 -46 70 -8 3 -15 14 -15 24 0 11 -11 34 -24 53 -14 19 -34 52 -45 74
-45 87 -73 130 -113 175 -24 27 -49 55 -56 64 -6 8 -31 20 -55 26 -23 6 -64
19 -92 30 -61 22 -154 39 -160 29z"/>
<path d="M1283 3583 c-18 -2 -33 -8 -33 -14 0 -5 -8 -9 -17 -9 -10 0 -47 -18
-83 -40 -36 -22 -77 -40 -91 -40 -15 0 -32 -6 -38 -14 -7 -8 -24 -18 -39 -21
-15 -3 -43 -18 -63 -33 -20 -15 -59 -44 -88 -66 -28 -21 -56 -47 -62 -57 -5
-11 -18 -19 -28 -19 -11 0 -45 -28 -78 -62 -32 -33 -72 -75 -88 -92 -51 -52
-85 -102 -85 -124 0 -11 -18 -43 -40 -71 -22 -28 -40 -53 -40 -56 0 -4 -20
-31 -44 -61 -82 -100 -129 -229 -94 -257 9 -7 19 -25 22 -41 4 -16 16 -41 27
-54 10 -14 19 -31 19 -39 0 -8 26 -26 57 -40 69 -32 213 -42 268 -18 19 7 68
19 110 25 42 6 88 14 103 16 34 6 91 41 117 71 11 13 28 23 36 23 9 0 24 9 33
19 10 11 87 54 173 97 193 97 222 100 351 40 45 -22 82 -42 82 -46 0 -4 17
-15 38 -24 20 -9 59 -37 86 -62 27 -25 62 -50 77 -56 16 -5 29 -14 29 -19 0
-10 64 -44 103 -53 15 -3 36 -2 48 4 16 9 27 7 53 -9 23 -15 42 -19 63 -15 18
4 33 1 37 -5 10 -15 77 -43 85 -35 3 3 -7 17 -22 30 -24 20 -27 27 -17 39 10
12 6 21 -24 47 -20 17 -36 37 -36 45 0 7 -13 19 -29 28 -36 18 -45 43 -31 80
12 32 12 31 -32 53 -18 10 -34 23 -34 30 -1 6 -2 18 -3 26 0 7 -14 27 -30 43
-16 17 -32 44 -35 60 -4 16 -24 46 -46 67 -45 43 -46 48 -25 66 12 10 24 5 68
-33 29 -24 59 -57 67 -73 8 -16 23 -36 32 -44 10 -8 29 -39 44 -69 24 -48 28
-52 42 -38 13 14 14 22 3 56 -6 22 -22 53 -35 68 -13 15 -27 39 -31 53 -4 14
-26 54 -47 90 -22 36 -48 78 -57 94 -9 16 -43 66 -77 110 -33 45 -63 89 -67
99 -3 9 -11 17 -16 17 -5 0 -19 15 -30 33 -11 17 -24 38 -29 45 -5 7 -19 14
-32 17 -12 2 -28 12 -35 22 -31 44 -130 137 -145 138 -10 1 -25 9 -35 18 -18
18 -37 24 -100 32 -78 10 -130 13 -162 8z m605 -513 c25 -33 29 -65 8 -57 -7
3 -18 1 -23 -4 -12 -12 -39 64 -29 80 11 17 21 13 44 -19z"/>
</g>
</svg>
